<?xml version="1.0" encoding="UTF-8"?>
<svg xmlns="http://www.w3.org/2000/svg" xmlns:xlink="http://www.w3.org/1999/xlink" width="3744" height="2593" viewBox="0 0 3744 2593">
<path fill-rule="nonzero" fill="rgb(100%, 100%, 100%)" fill-opacity="1" d="M 0 0 L 0 2592 L 3744 2592.003906 L 3744 0 L 0 0 "/>
<path fill-rule="nonzero" fill="rgb(0%, 0%, 0%)" fill-opacity="1" d="M 1385.578125 1404.71875 C 1331.160156 1404.859375 1287.160156 1449.089844 1287.289062 1503.5 L 1484.359375 1503.011719 C 1484.21875 1448.589844 1440 1404.589844 1385.578125 1404.71875 Z M 2099.078125 1164.851562 C 2084.269531 1164.890625 2069.25 1168.28125 2055.121094 1175.390625 C 2006.5 1199.839844 1986.929688 1259.078125 2011.378906 1307.691406 L 2250.628906 1783.210938 C 2267.980469 1817.695312 2302.828125 1837.570312 2338.980469 1837.480469 C 2353.789062 1837.441406 2368.808594 1834.054688 2382.941406 1826.945312 C 2431.550781 1802.488281 2451.128906 1743.25 2426.671875 1694.640625 L 2243 1329.589844 C 2199.519531 1350.210938 2150.941406 1361.808594 2099.648438 1361.941406 L 2099.160156 1164.871094 C 2099.660156 1164.871094 2100.160156 1164.871094 2100.660156 1164.859375 C 2100.148438 1164.859375 2099.621094 1164.851562 2099.078125 1164.851562 Z M 2097.96875 688.761719 L 2098.460938 885.820312 C 2175.519531 885.640625 2238.140625 947.941406 2238.328125 1025 C 2238.519531 1102.058594 2176.21875 1164.679688 2099.160156 1164.871094 L 2099.648438 1361.941406 C 2285.550781 1361.460938 2435.859375 1210.390625 2435.390625 1024.5 C 2434.929688 838.621094 2283.871094 688.300781 2097.980469 688.761719 Z M 1621.851562 689.949219 C 1595.710938 690.019531 1570.679688 700.460938 1552.25 718.980469 C 1533.808594 737.511719 1523.5 762.601562 1523.558594 788.730469 L 1524.160156 1026.789062 C 1524.289062 1081.210938 1568.519531 1125.210938 1622.941406 1125.070312 C 1677.359375 1124.941406 1721.359375 1080.710938 1721.21875 1026.300781 L 1720.871094 886.769531 L 2098.460938 885.820312 C 2098.609375 885.820312 2098.75 885.820312 2098.898438 885.820312 C 2098.769531 885.820312 2098.609375 885.820312 2098.460938 885.820312 L 2097.96875 688.761719 Z M 1761.871094 886.660156 L 1763.410156 1502.308594 L 1960.46875 1501.820312 L 1958.929688 886.171875 Z M 1287.289062 1503.5 C 1287.761719 1689.398438 1438.828125 1839.714844 1624.730469 1839.25 C 1810.621094 1838.78125 1960.941406 1687.710938 1960.46875 1501.820312 L 1763.441406 1502.308594 C 1763.601562 1579.371094 1701.289062 1641.992188 1624.230469 1642.183594 C 1547.179688 1642.378906 1484.550781 1580.070312 1484.359375 1503.011719 L 1287.339844 1503.5 Z M 1287.289062 1503.5 "/>
</svg>
